<?xml version="1.0" encoding="iso-8859-1"?>
<!-- Generator: Adobe Illustrator 19.0.0, SVG Export Plug-In . SVG Version: 6.00 Build 0)  -->
<svg version="1.1" id="Layer_1" xmlns="http://www.w3.org/2000/svg" xmlns:xlink="http://www.w3.org/1999/xlink" x="0px" y="0px"
	 viewBox="0 0 512 512" style="enable-background:new 0 0 512 512;" xml:space="preserve">
<path d="M0,346.68v-310c0-5.504,4.704-10,10.448-10h491.104c5.744,0,10.448,4.496,10.448,10v310H0z"/>
<path style="fill:#E2E2E2;" d="M512,346.68v42.664c0,5.872-4.704,10.672-10.448,10.672H10.448c-5.744,0-10.448-4.8-10.448-10.664
	v-42.664h512V346.68z"/>
<polygon style="fill:#C9C9C9;" points="181.336,474.68 330.664,474.68 320,400.016 192,400.016 "/>
<polygon style="fill:#AAAAAA;" points="320,400.016 192,400.016 185.352,446.552 322.488,417.416 "/>
<rect x="144" y="474.656" style="fill:#E2E2E2;" width="224" height="10.664"/>
<polygon style="fill:#939393;" points="192,400.016 320,400.016 320.72,405.056 188.68,423.28 "/>
<rect x="17.864" y="44.544" width="476.24" height="284.28"/>
<path style="fill:#25B6D2;" d="M376.072,204.68v-36l-26.648-2.664c-2.44-11.088-6.824-21.424-12.744-30.704l16.984-20.752
	l-25.456-25.456l-20.736,16.968c-9.28-5.936-19.632-10.328-30.728-12.784l-2.664-26.592h-18h-0.152h-18l-2.664,26.592
	c-11.104,2.456-21.456,6.848-30.736,12.784L183.8,89.112l-25.456,25.456l16.976,20.744c-5.92,9.28-10.304,19.624-12.752,30.712
	l-26.64,2.664v36l26.64,2.664c2.44,11.096,6.824,21.432,12.752,30.72l-16.976,20.744l25.456,25.456l20.728-16.96
	c9.288,5.944,19.64,10.336,30.744,12.784l2.664,26.592h18h0.152h18l2.664-26.592c11.096-2.456,21.448-6.848,30.736-12.792
	l20.736,16.968l25.456-25.456l-16.984-20.76c5.92-9.28,10.296-19.616,12.736-30.696L376.072,204.68z"/>
<circle style="fill:#FFFFFF;" cx="255.992" cy="186.68" r="58.28"/>
<circle style="fill:#25B6D2;" cx="255.992" cy="186.68" r="35.176"/>
<circle style="fill:#FFFFFF;" cx="255.992" cy="186.68" r="17.04"/>
<g>
</g>
<g>
</g>
<g>
</g>
<g>
</g>
<g>
</g>
<g>
</g>
<g>
</g>
<g>
</g>
<g>
</g>
<g>
</g>
<g>
</g>
<g>
</g>
<g>
</g>
<g>
</g>
<g>
</g>
</svg>
